<svg width="59" height="60" viewBox="0 0 59 60" fill="none" xmlns="http://www.w3.org/2000/svg">
<path d="M29.6666 48.6668C28.9306 48.6668 28.3333 49.2628 28.3333 50.0002V58.0002C28.3333 58.7375 28.9306 59.3335 29.6666 59.3335C30.4026 59.3335 31 58.7375 31 58.0002V50.0002C31 49.2628 30.4026 48.6668 29.6666 48.6668ZM29.6666 43.3335C22.3026 43.3335 16.3333 37.3628 16.3333 30.0002C16.3333 22.6362 22.3026 16.6668 29.6666 16.6668C37.0306 16.6668 43 22.6362 43 30.0002C43 37.3628 37.0306 43.3335 29.6666 43.3335ZM29.6666 14.0002C20.8306 14.0002 13.6666 21.1642 13.6666 30.0002C13.6666 38.8375 20.8306 46.0002 29.6666 46.0002C38.5026 46.0002 45.6666 38.8375 45.6666 30.0002C45.6666 21.1642 38.5026 14.0002 29.6666 14.0002ZM44.752 43.1988C44.2306 42.6788 43.3866 42.6788 42.8653 43.1988C42.3453 43.7202 42.3453 44.5655 42.8653 45.0855L48.5226 50.7428C49.044 51.2628 49.888 51.2628 50.4093 50.7428C50.9293 50.2215 50.9293 49.3775 50.4093 48.8575L44.752 43.1988ZM57.6666 28.6668H49.6666C48.9306 28.6668 48.3333 29.2628 48.3333 30.0002C48.3333 30.7375 48.9306 31.3335 49.6666 31.3335H57.6666C58.4026 31.3335 59 30.7375 59 30.0002C59 29.2628 58.4026 28.6668 57.6666 28.6668ZM14.5813 43.1988L8.92531 48.8575C8.40398 49.3775 8.40398 50.2215 8.92531 50.7428C9.44531 51.2628 10.2893 51.2628 10.8106 50.7428L16.468 45.0855C16.988 44.5655 16.988 43.7202 16.468 43.1988C15.9466 42.6788 15.1026 42.6788 14.5813 43.1988V43.1988ZM44.752 16.8015L50.4093 11.1429C50.9293 10.6229 50.9293 9.77885 50.4093 9.25752C49.888 8.73752 49.044 8.73752 48.5226 9.25752L42.8653 14.9162C42.3453 15.4348 42.3453 16.2802 42.8653 16.8015C43.3866 17.3215 44.2306 17.3215 44.752 16.8015V16.8015ZM29.6666 11.3335C30.4026 11.3335 31 10.7375 31 10.0002V2.00018C31 1.26285 30.4026 0.666848 29.6666 0.666848C28.9306 0.666848 28.3333 1.26285 28.3333 2.00018V10.0002C28.3333 10.7375 28.9306 11.3335 29.6666 11.3335ZM11 30.0002C11 29.2628 10.4026 28.6668 9.66665 28.6668H1.66665C0.930646 28.6668 0.333313 29.2628 0.333313 30.0002C0.333313 30.7375 0.930646 31.3335 1.66665 31.3335H9.66665C10.4026 31.3335 11 30.7375 11 30.0002ZM14.5813 16.8015C15.1026 17.3215 15.9466 17.3215 16.468 16.8015C16.988 16.2802 16.988 15.4348 16.468 14.9162L10.8106 9.25752C10.2893 8.73752 9.44531 8.73752 8.92531 9.25752C8.40398 9.77885 8.40398 10.6229 8.92531 11.1429L14.5813 16.8015Z" fill="#3A3A3A"/>
</svg>
