<svg width="59" height="44" viewBox="0 0 59 44" fill="none" xmlns="http://www.w3.org/2000/svg">
<path d="M45.6666 40.6668H12.3333C7.18792 40.6668 2.99992 36.4788 2.99992 31.3335C2.99992 27.3122 5.56525 23.7575 9.38525 22.4842L11.6453 21.7322L11.1493 19.4002C11.0506 18.9322 10.9999 18.4615 10.9999 18.0002C10.9999 14.3242 13.9906 11.3335 17.6666 11.3335C18.4266 11.3335 19.1879 11.4708 19.9293 11.7388L22.1146 12.5308L23.1973 10.4735C25.5159 6.06951 30.0386 3.33351 34.9999 3.33351C42.3519 3.33351 48.3332 9.31351 48.3332 16.6668C48.3332 16.9002 48.3146 17.1282 48.2999 17.3575L48.2839 17.5842L48.1626 19.4615L49.8879 20.2055C53.8039 21.8962 56.3332 25.7402 56.3332 30.0002C56.3332 35.8815 51.5479 40.6668 45.6666 40.6668ZM50.9452 17.7562C50.9692 17.3962 50.9999 17.0348 50.9999 16.6668C50.9999 7.83085 43.8359 0.666847 34.9999 0.666847C28.8493 0.666847 23.5173 4.14151 20.8386 9.23218C19.8479 8.87218 18.7826 8.66685 17.6666 8.66685C12.5119 8.66685 8.33325 12.8455 8.33325 18.0002C8.33325 18.6708 8.40792 19.3228 8.54125 19.9548C3.77459 21.5428 0.333252 26.0322 0.333252 31.3335C0.333252 37.9615 5.70525 43.3335 12.3333 43.3335H45.6666C53.0292 43.3335 58.9999 37.3642 58.9999 30.0002C58.9999 24.5122 55.6826 19.8028 50.9452 17.7562" fill="#3A3A3A"/>
</svg>
