<svg width="43" height="60" viewBox="0 0 43 60" fill="none" xmlns="http://www.w3.org/2000/svg">
<path d="M21.6666 56.6668C11.3573 56.6668 2.99993 47.9842 2.99993 37.2735C2.99993 24.6668 20.3333 3.83351 21.6666 3.83351C22.9999 3.83351 40.3333 24.6668 40.3333 37.2735C40.3333 47.9842 31.9759 56.6668 21.6666 56.6668ZM21.6666 0.666848C18.9999 0.666848 0.333267 23.3335 0.333267 38.0002C0.333267 49.7815 9.88527 59.3335 21.6666 59.3335C33.4493 59.3335 42.9999 49.7815 42.9999 38.0002C42.9999 23.3335 24.3333 0.666848 21.6666 0.666848ZM21.6666 51.3335C14.3026 51.3335 8.33327 45.3628 8.33327 38.0002C8.33327 37.2628 7.73727 36.6668 6.99993 36.6668C6.2626 36.6668 5.6666 37.2628 5.6666 38.0002C5.6666 46.8362 12.8306 54.0002 21.6666 54.0002C22.4039 54.0002 22.9999 53.4042 22.9999 52.6668C22.9999 51.9308 22.4039 51.3335 21.6666 51.3335Z" fill="#3A3A3A"/>
</svg>
