<svg width="59" height="60" viewBox="0 0 59 60" fill="none" xmlns="http://www.w3.org/2000/svg">
<path d="M21.6666 24.6668C18.7213 24.6668 16.3333 22.2788 16.3333 19.3335C16.3333 16.3882 18.7213 14.0002 21.6666 14.0002C24.6119 14.0002 26.9999 16.3882 26.9999 19.3335C26.9999 22.2788 24.6119 24.6668 21.6666 24.6668ZM21.6666 11.3335C17.2479 11.3335 13.6666 14.9162 13.6666 19.3335C13.6666 23.7522 17.2479 27.3335 21.6666 27.3335C26.0839 27.3335 29.6666 23.7522 29.6666 19.3335C29.6666 14.9162 26.0839 11.3335 21.6666 11.3335ZM29.6666 56.6668C14.9386 56.6668 2.99995 44.7282 2.99995 30.0002C2.99995 15.2735 14.9386 3.33351 29.6666 3.33351C44.3946 3.33351 56.3333 15.2735 56.3333 30.0002C56.3333 44.7282 44.3946 56.6668 29.6666 56.6668ZM29.6666 0.666848C13.4666 0.666848 0.333282 13.8002 0.333282 30.0002C0.333282 46.2002 13.4666 59.3335 29.6666 59.3335C45.8666 59.3335 58.9999 46.2002 58.9999 30.0002C58.9999 13.8002 45.8666 0.666848 29.6666 0.666848ZM33.6666 30.0002C32.9306 30.0002 32.3333 30.5962 32.3333 31.3335C32.3333 32.0708 32.9306 32.6668 33.6666 32.6668C34.4026 32.6668 34.9999 32.0708 34.9999 31.3335C34.9999 30.5962 34.4026 30.0002 33.6666 30.0002ZM25.6666 43.3335C24.9306 43.3335 24.3333 42.7375 24.3333 42.0002C24.3333 41.2642 24.9306 40.6668 25.6666 40.6668C26.4026 40.6668 26.9999 41.2642 26.9999 42.0002C26.9999 42.7375 26.4026 43.3335 25.6666 43.3335ZM25.6666 38.0002C23.4573 38.0002 21.6666 39.7922 21.6666 42.0002C21.6666 44.2095 23.4573 46.0002 25.6666 46.0002C27.8759 46.0002 29.6666 44.2095 29.6666 42.0002C29.6666 39.7922 27.8759 38.0002 25.6666 38.0002ZM13.6666 32.6668C12.1946 32.6668 10.9999 33.8615 10.9999 35.3335C10.9999 36.8055 12.1946 38.0002 13.6666 38.0002C15.1386 38.0002 16.3333 36.8055 16.3333 35.3335C16.3333 33.8615 15.1386 32.6668 13.6666 32.6668ZM38.9999 46.0002C38.2639 46.0002 37.6666 46.5975 37.6666 47.3335C37.6666 48.0708 38.2639 48.6668 38.9999 48.6668C39.7359 48.6668 40.3333 48.0708 40.3333 47.3335C40.3333 46.5975 39.7359 46.0002 38.9999 46.0002ZM45.6666 32.6668C44.1946 32.6668 42.9999 31.4722 42.9999 30.0002C42.9999 28.5282 44.1946 27.3335 45.6666 27.3335C47.1386 27.3335 48.3333 28.5282 48.3333 30.0002C48.3333 31.4722 47.1386 32.6668 45.6666 32.6668ZM45.6666 24.6668C42.7213 24.6668 40.3333 27.0548 40.3333 30.0002C40.3333 32.9455 42.7213 35.3335 45.6666 35.3335C48.6119 35.3335 50.9999 32.9455 50.9999 30.0002C50.9999 27.0548 48.6119 24.6668 45.6666 24.6668Z" fill="#3A3A3A"/>
</svg>
