<svg width="59" height="60" viewBox="0 0 59 60" fill="none" xmlns="http://www.w3.org/2000/svg">
<path d="M59 6.00018H53.6666L51.6666 0.666848L49.6666 6.00018H44.3333L48.6666 9.33351L46.6666 15.3335L51.6666 11.6668L56.6666 15.3335L54.6666 9.33351L59 6.00018ZM29.6666 56.6615C14.9626 56.6615 2.99996 44.6748 2.99996 29.9375C2.99996 18.1402 10.5053 8.11085 21.2186 4.58018C18.904 9.09085 17.6666 14.1295 17.6666 19.2482C17.6666 35.9868 30.5293 49.7708 46.8693 51.1948C42.0533 54.6148 35.8186 56.6615 29.6666 56.6615ZM20.3333 19.2482C20.3333 12.2028 22.8106 5.74418 26.9346 0.680179C12.0173 2.06418 0.333298 14.6268 0.333298 29.9375C0.333298 46.1735 13.4666 59.3335 29.6666 59.3335C38.8373 59.3335 48.288 55.1108 53.6666 48.5055C52.7666 48.5895 50.588 48.6442 49.6666 48.6442C33.4666 48.6442 20.3333 35.4828 20.3333 19.2482V19.2482ZM48.3333 28.6668L46.8786 32.5455H43L46.152 34.9695L44.696 39.3335L48.3333 36.6668L51.9693 39.3335L50.5146 34.9695L53.6666 32.5455H49.788L48.3333 28.6668ZM31.364 26.0002L35 23.3335L38.636 26.0002L37.1813 21.6375L40.3333 19.2122H36.4546L35 15.3335L33.5453 19.2122H29.6666L32.8186 21.6375L31.364 26.0002Z" fill="#3A3A3A"/>
</svg>
