<svg width="60" height="44" viewBox="0 0 60 44" fill="none" xmlns="http://www.w3.org/2000/svg">
<path d="M48.1822 24.2645C44.2635 26.7258 39.0049 29.0632 32.5542 30.7125C27.5635 31.9885 22.5182 32.6618 17.9609 32.6618C16.6435 32.6618 15.4089 32.5832 14.2155 32.4738C12.1875 29.4872 10.9995 25.8832 10.9995 22.0005C10.9995 11.6912 19.3569 3.33383 29.6662 3.33383C39.9769 3.33383 48.3329 11.6912 48.3329 22.0005C48.3329 22.7685 48.2729 23.5205 48.1822 24.2645ZM29.6662 40.6672C24.5675 40.6672 19.9502 38.6178 16.5822 35.3018C17.0369 35.3165 17.4915 35.3272 17.9609 35.3272C22.5995 35.3272 27.8249 34.6725 33.2129 33.2938C38.5702 31.9245 43.3942 30.0085 47.3982 27.8112C44.9542 35.2725 37.9449 40.6672 29.6662 40.6672V40.6672ZM58.7862 13.2232C57.8209 9.78583 53.7702 7.48583 47.9915 6.52183C48.8542 7.54317 49.6342 8.63517 50.3195 9.7925C53.5382 10.7165 55.7155 12.1525 56.2182 13.9432C56.5102 14.9792 56.2609 16.1952 55.4769 17.5538C54.6302 19.0205 53.1062 20.6618 50.9849 22.3125C50.9862 22.2072 50.9995 22.1058 50.9995 22.0005C50.9995 10.2178 41.4475 0.667168 29.6662 0.667168C17.8849 0.667168 8.33288 10.2178 8.33288 22.0005C8.33288 25.6085 9.23688 29.0032 10.8182 31.9818C6.59954 31.1232 3.70621 29.4965 3.11421 27.3898C2.82355 26.3512 3.07288 25.1392 3.85688 23.7792C4.28355 23.0405 4.93688 22.2485 5.69554 21.4432C5.72621 20.0578 5.86488 18.6978 6.12088 17.3792C1.80355 20.9085 -0.39779 24.7418 0.54621 28.1098C1.59288 31.8312 6.24488 34.2232 12.7969 35.0245C16.6995 40.0698 22.7942 43.3338 29.6662 43.3338C40.1275 43.3338 48.8129 35.7978 50.6329 25.8618C56.6342 21.8485 59.9062 17.2085 58.7862 13.2232" fill="#3A3A3A"/>
</svg>
