<svg width="59" height="32" viewBox="0 0 59 32" fill="none" xmlns="http://www.w3.org/2000/svg">
<path d="M50.9374 29.3335C50.2841 17.4402 41.0254 8.00018 29.6668 8.00018C18.3068 8.00018 9.04943 17.4402 8.3961 29.3335H3.0641C3.7321 14.4935 15.3668 2.66684 29.6668 2.66684C43.9654 2.66684 55.6014 14.4935 56.2694 29.3335H50.9374ZM42.9388 29.3335C42.3254 21.8602 36.6214 16.0002 29.6668 16.0002C22.7121 16.0002 17.0081 21.8602 16.3948 29.3335H11.0628C11.7054 18.9135 19.7774 10.6668 29.6668 10.6668C39.5561 10.6668 47.6281 18.9135 48.2708 29.3335H42.9388ZM34.8934 29.3335C34.3988 26.2922 32.2468 24.0002 29.6668 24.0002C27.0854 24.0002 24.9348 26.2922 24.4401 29.3335H19.0708C19.6588 23.3348 24.1774 18.6668 29.6668 18.6668C35.1561 18.6668 39.6748 23.3348 40.2628 29.3335H34.8934ZM29.6668 0.000177383C13.4654 0.000177383 0.333435 13.7308 0.333435 30.6668C0.333435 31.4028 0.929435 32.0002 1.66677 32.0002H25.6668C26.4041 32.0002 27.0001 31.4028 27.0001 30.6668C27.0001 28.4588 28.1934 26.6668 29.6668 26.6668C31.1388 26.6668 32.3334 28.4588 32.3334 30.6668C32.3334 31.4028 32.9294 32.0002 33.6668 32.0002H57.6668C58.4041 32.0002 59.0001 31.4028 59.0001 30.6668C59.0001 13.7308 45.8668 0.000177383 29.6668 0.000177383" fill="#3A3A3A"/>
</svg>
