<svg width="59" height="54" viewBox="0 0 59 54" fill="none" xmlns="http://www.w3.org/2000/svg">
<path d="M40.3333 48.3335C40.3333 49.8055 41.528 51.0002 43 51.0002C44.472 51.0002 45.6666 49.8055 45.6666 48.3335C45.6666 45.6668 43 43.0002 43 43.0002C43 43.0002 40.3333 45.6668 40.3333 48.3335ZM13.6666 51.0002C13.6666 52.4735 14.8613 53.6668 16.3333 53.6668C17.8053 53.6668 19 52.4735 19 51.0002C19 48.3335 16.3333 45.6668 16.3333 45.6668C16.3333 45.6668 13.6666 48.3335 13.6666 51.0002ZM27 43.0002C27 44.4722 28.1946 45.6668 29.6666 45.6668C31.1386 45.6668 32.3333 44.4722 32.3333 43.0002C32.3333 40.3335 29.6666 37.6668 29.6666 37.6668C29.6666 37.6668 27 40.3335 27 43.0002ZM48.3333 32.3335H11C6.58798 32.3335 2.99998 28.7455 2.99998 24.3335C2.99998 20.6175 5.52665 17.4202 9.14398 16.5602C10.204 16.3082 11.004 15.4362 11.1653 14.3588C12.128 7.88284 17.7893 3.00017 24.3333 3.00017C28.8546 3.00017 31.6946 3.94684 34.168 7.76417C34.588 8.41484 36.604 10.1828 37.3693 10.2895C37.4933 10.3068 37.74 10.3148 37.74 10.3148C38.3813 10.3148 39.0053 10.0842 39.4946 9.65617C40.4693 8.80417 41.7146 8.33351 43 8.33351C45.9413 8.33351 48.3333 10.7268 48.3293 13.6948L48.3173 13.8908C48.26 15.1535 49.096 16.2815 50.32 16.5948C53.8613 17.5028 56.3333 20.6842 56.3333 24.3335C56.3333 28.7455 52.7453 32.3335 48.3333 32.3335ZM50.9813 14.0122C50.9866 13.8975 51 13.7842 51 13.6668C51 9.24951 47.4173 5.66684 43 5.66684C40.984 5.66684 39.1466 6.41751 37.74 7.64817C34.8933 3.25217 29.9626 0.333506 24.3333 0.333506C16.3026 0.333506 9.67331 6.25484 8.52798 13.9668C3.83065 15.0842 0.333313 19.2948 0.333313 24.3335C0.333313 30.2242 5.10798 35.0002 11 35.0002H48.3333C54.224 35.0002 59 30.2242 59 24.3335C59 19.3588 55.588 15.1935 50.9813 14.0122Z" fill="#3A3A3A"/>
</svg>
