<svg width="59" height="48" viewBox="0 0 59 48" fill="none" xmlns="http://www.w3.org/2000/svg">
<path d="M48.3333 32.0002H11C6.58796 32.0002 2.99996 28.4122 2.99996 24.0002C2.99996 20.2842 5.52663 17.0882 9.14396 16.2268C10.204 15.9762 11.004 15.1028 11.1653 14.0255C12.128 7.54951 17.7893 2.66684 24.3333 2.66684C28.8546 2.66684 31.6946 3.61351 34.168 7.43084C34.588 8.08151 36.604 9.8495 37.3693 9.95617C37.4933 9.9735 37.74 9.98151 37.74 9.98151C38.3813 9.98151 39.0053 9.75084 39.4946 9.32284C40.4693 8.47084 41.7146 8.00017 43 8.00017C45.9413 8.00017 48.3333 10.3922 48.3293 13.3615L48.3173 13.5575C48.26 14.8202 49.096 15.9495 50.32 16.2615C53.8613 17.1695 56.3333 20.3508 56.3333 24.0002C56.3333 28.4122 52.7453 32.0002 48.3333 32.0002ZM50.9813 13.6802C50.9866 13.5642 51 13.4508 51 13.3335C51 8.91617 47.4173 5.33351 43 5.33351C40.984 5.33351 39.1466 6.08417 37.74 7.31484C34.8933 2.91884 29.9626 0.000172615 24.3333 0.000172615C16.3026 0.000172615 9.6733 5.92151 8.52796 13.6335C3.83063 14.7495 0.333298 18.9615 0.333298 24.0002C0.333298 29.8908 5.10796 34.6668 11 34.6668H48.3333C54.224 34.6668 59 29.8908 59 24.0002C59 19.0255 55.588 14.8602 50.9813 13.6802V13.6802ZM41.6666 37.3335C41.2986 37.3335 40.9653 37.4828 40.7226 37.7242L32.7253 45.7228C32.4826 45.9655 32.3333 46.2988 32.3333 46.6668C32.3333 47.4042 32.9306 48.0002 33.6666 48.0002C34.0346 48.0002 34.368 47.8522 34.6093 47.6095L42.608 39.6095C42.8506 39.3682 43 39.0348 43 38.6668C43 37.9308 42.4026 37.3335 41.6666 37.3335ZM35 38.6668C35 37.9308 34.4026 37.3335 33.6666 37.3335C33.2986 37.3335 32.9653 37.4828 32.7226 37.7242L24.7253 45.7228C24.4826 45.9655 24.3333 46.2988 24.3333 46.6668C24.3333 47.4042 24.9306 48.0002 25.6666 48.0002C26.0346 48.0002 26.368 47.8522 26.6093 47.6095L34.6093 39.6095C34.8506 39.3682 35 39.0348 35 38.6668ZM19 38.6668C19 37.9308 18.4026 37.3335 17.6666 37.3335C17.2986 37.3335 16.9653 37.4828 16.7226 37.7242L8.7253 45.7228C8.48263 45.9655 8.3333 46.2988 8.3333 46.6668C8.3333 47.4042 8.93063 48.0002 9.66663 48.0002C10.0346 48.0002 10.368 47.8522 10.6093 47.6095L18.6093 39.6095C18.8506 39.3682 19 39.0348 19 38.6668ZM27 38.6668C27 37.9308 26.4026 37.3335 25.6666 37.3335C25.2986 37.3335 24.9653 37.4828 24.7226 37.7242L16.7253 45.7228C16.4826 45.9655 16.3333 46.2988 16.3333 46.6668C16.3333 47.4042 16.9306 48.0002 17.6666 48.0002C18.0346 48.0002 18.368 47.8522 18.6093 47.6095L26.608 39.6095C26.8506 39.3682 27 39.0348 27 38.6668Z" fill="#3A3A3A"/>
</svg>
