<svg width="59" height="60" viewBox="0 0 59 60" fill="none" xmlns="http://www.w3.org/2000/svg">
<path d="M56.3332 54.0002C56.3332 55.4722 55.1386 56.6668 53.6666 56.6668H5.66658C4.19459 56.6668 2.99992 55.4722 2.99992 54.0002V6.00017C2.99992 4.52817 4.19459 3.33351 5.66658 3.33351H53.6666C55.1386 3.33351 56.3332 4.52817 56.3332 6.00017V54.0002ZM53.6666 0.666841H5.66658C2.72125 0.666841 0.333252 3.05484 0.333252 6.00017V54.0002C0.333252 56.9455 2.72125 59.3335 5.66658 59.3335H53.6666C56.6119 59.3335 58.9999 56.9455 58.9999 54.0002V6.00017C58.9999 3.05484 56.6119 0.666841 53.6666 0.666841ZM39.6612 38.5202C38.7573 39.0108 37.8252 39.2548 36.8666 39.2548C35.6386 39.2548 34.5293 39.0162 33.5359 38.5375C32.5439 38.0602 31.6906 37.4028 30.9759 36.5655C30.2626 35.7295 29.7106 34.7362 29.3199 33.5882C28.9292 32.4402 28.7346 31.1855 28.7346 29.8215C28.7346 28.5548 28.9292 27.3708 29.3199 26.2708C29.7106 25.1722 30.2626 24.2082 30.9759 23.3828C31.6906 22.5588 32.5439 21.9135 33.5359 21.4468C34.5293 20.9802 35.6386 20.7482 36.8666 20.7482C37.6919 20.7482 38.5119 20.9162 39.3266 21.2508C40.1399 21.5842 40.9826 22.2535 41.8532 23.2575L45.1332 20.6762C43.9492 19.2175 42.6732 18.1828 41.3012 17.5735C39.9279 16.9642 38.4399 16.6588 36.8332 16.6588C35.0039 16.6588 33.3239 16.9748 31.7972 17.6095C30.2679 18.2428 28.9532 19.1455 27.8492 20.3162C26.7439 21.4882 25.8786 22.9068 25.2546 24.5682C24.6306 26.2295 24.3173 28.0775 24.3173 30.1095C24.3173 32.0935 24.6306 33.8988 25.2546 35.5255C25.8786 37.1508 26.7439 38.5442 27.8492 39.7028C28.9532 40.8642 30.2679 41.7602 31.7972 42.3935C33.3239 43.0282 35.0039 43.3442 36.8332 43.3442C38.5732 43.3442 40.2132 42.9855 41.7519 42.2682C43.2919 41.5508 44.5959 40.4042 45.6679 38.8255L42.1879 36.1708C41.4066 37.2468 40.5652 38.0295 39.6612 38.5202V38.5202ZM16.3333 19.3335C14.8613 19.3335 13.6666 18.1388 13.6666 16.6668C13.6666 15.1948 14.8613 14.0002 16.3333 14.0002C17.8053 14.0002 18.9999 15.1948 18.9999 16.6668C18.9999 18.1388 17.8053 19.3335 16.3333 19.3335ZM16.3333 11.3335C13.3879 11.3335 10.9999 13.7215 10.9999 16.6668C10.9999 19.6122 13.3879 22.0002 16.3333 22.0002C19.2786 22.0002 21.6666 19.6122 21.6666 16.6668C21.6666 13.7215 19.2786 11.3335 16.3333 11.3335Z" fill="#3A3A3A"/>
</svg>
