<svg width="59" height="60" viewBox="0 0 59 60" fill="none" xmlns="http://www.w3.org/2000/svg">
<path d="M48.3333 32.6668H10.9999C6.58793 32.6668 2.99993 29.0788 2.99993 24.6668C2.99993 20.9508 5.52527 17.7548 9.14393 16.8948C10.2039 16.6428 11.0053 15.7695 11.1653 14.6922C12.1279 8.21617 17.7893 3.33351 24.3333 3.33351C28.8546 3.33351 31.6946 4.28017 34.1679 8.0975C34.5879 8.74817 36.6039 10.5162 37.3693 10.6228C37.4933 10.6402 37.7399 10.6482 37.7399 10.6482C38.3813 10.6482 39.0053 10.4175 39.4946 9.98951C40.4693 9.13751 41.7146 8.66684 42.9999 8.66684C45.9413 8.66684 48.3333 11.0588 48.3293 14.0282L48.3173 14.2242C48.2599 15.4868 49.0959 16.6162 50.3199 16.9282C53.8613 17.8362 56.3333 21.0175 56.3333 24.6668C56.3333 29.0788 52.7453 32.6668 48.3333 32.6668ZM50.9813 14.3468C50.9866 14.2308 50.9999 14.1175 50.9999 14.0002C50.9999 9.58284 47.4173 6.00017 42.9999 6.00017C40.9839 6.00017 39.1466 6.75084 37.7399 7.98151C34.8933 3.58551 29.9639 0.666841 24.3333 0.666841C16.3026 0.666841 9.6746 6.58817 8.5266 14.3002C3.8306 15.4162 0.333267 19.6282 0.333267 24.6668C0.333267 30.5575 5.10927 35.3335 10.9999 35.3335H48.3333C54.2239 35.3335 58.9999 30.5575 58.9999 24.6668C58.9999 19.6922 55.5879 15.5268 50.9813 14.3468V14.3468ZM32.3333 42.0002C32.3333 41.2628 31.7373 40.6668 30.9999 40.6668C30.6319 40.6668 30.2973 40.8162 30.0573 41.0588L22.0586 49.0562C21.8159 49.2988 21.6666 49.6322 21.6666 50.0002C21.6666 50.7375 22.2626 51.3335 22.9999 51.3335H27.7813L22.0573 57.0575C21.8146 57.3002 21.6666 57.6322 21.6666 58.0002C21.6666 58.7375 22.2626 59.3335 22.9999 59.3335C23.3679 59.3335 23.6999 59.1855 23.9426 58.9428L31.9426 50.9428C32.1839 50.7015 32.3333 50.3682 32.3333 50.0002C32.3333 49.2628 31.7373 48.6668 30.9999 48.6668H30.9973H26.2186L31.9426 42.9428C32.1853 42.7015 32.3333 42.3682 32.3333 42.0002Z" fill="#3A3A3A"/>
</svg>
