<svg width="59" height="60" viewBox="0 0 59 60" fill="none" xmlns="http://www.w3.org/2000/svg">
<path d="M56.3333 54.0002C56.3333 55.4722 55.1386 56.6668 53.6666 56.6668H5.66665C4.19465 56.6668 2.99998 55.4722 2.99998 54.0002V6.00017C2.99998 4.52817 4.19465 3.3335 5.66665 3.3335H53.6666C55.1386 3.3335 56.3333 4.52817 56.3333 6.00017V54.0002ZM53.6666 0.666833H5.66665C2.72131 0.666833 0.333313 3.05483 0.333313 6.00017V54.0002C0.333313 56.9455 2.72131 59.3335 5.66665 59.3335H53.6666C56.612 59.3335 59 56.9455 59 54.0002V6.00017C59 3.05483 56.612 0.666833 53.6666 0.666833ZM27.0173 43.3202L31 43.3335V32.6668H41.6666V28.6668H31V20.6668H43L43.0066 16.6828H27.0173V43.3202ZM16.3333 19.3335C14.8613 19.3335 13.6666 18.1402 13.6666 16.6668C13.6666 15.1948 14.8613 14.0002 16.3333 14.0002C17.8053 14.0002 19 15.1948 19 16.6668C19 18.1402 17.8053 19.3335 16.3333 19.3335ZM16.3333 11.3335C13.388 11.3335 11 13.7215 11 16.6668C11 19.6122 13.388 22.0002 16.3333 22.0002C19.2786 22.0002 21.6666 19.6122 21.6666 16.6668C21.6666 13.7215 19.2786 11.3335 16.3333 11.3335Z" fill="#3A3A3A"/>
</svg>
