<svg width="59" height="60" viewBox="0 0 59 60" fill="none" xmlns="http://www.w3.org/2000/svg">
<path d="M29.6666 56.6668C28.5199 56.6668 27.3972 56.5708 26.2879 56.4295C20.0959 49.3855 16.3333 40.1148 16.3333 30.0002C16.3333 19.8855 20.0959 10.6148 26.2879 3.57083C27.3972 3.4295 28.5199 3.3335 29.6666 3.3335C44.3946 3.3335 56.3332 15.2722 56.3332 30.0002C56.3332 44.7282 44.3946 56.6668 29.6666 56.6668ZM29.6666 0.666833C13.4666 0.666833 0.333252 13.8002 0.333252 30.0002C0.333252 46.2002 13.4666 59.3335 29.6666 59.3335C45.8666 59.3335 58.9999 46.2002 58.9999 30.0002C58.9999 13.8002 45.8666 0.666833 29.6666 0.666833Z" fill="#3A3A3A"/>
</svg>
