<svg width="59" height="60" viewBox="0 0 59 60" fill="none" xmlns="http://www.w3.org/2000/svg">
<path d="M29.6666 3.88552L34.448 8.66685H33.6666C32.9306 8.66685 32.3333 9.26285 32.3333 10.0002V16.6668H27V10.0002C27 9.26285 26.4026 8.66685 25.6666 8.66685H24.8853L29.6666 3.88552ZM21.6666 11.3335H24.3333V18.0002C24.3333 18.7375 24.9306 19.3335 25.6666 19.3335H33.6666C34.4026 19.3335 35 18.7375 35 18.0002V11.3335H37.6666C38.4026 11.3335 39 10.7375 39 10.0002C39 9.63218 38.8506 9.30019 38.6093 9.05752L30.6093 1.05885C30.3693 0.816185 30.0346 0.666848 29.6666 0.666848C29.2986 0.666848 28.9653 0.816185 28.7226 1.05885L20.724 9.05752C20.4826 9.30019 20.3333 9.63218 20.3333 10.0002C20.3333 10.7375 20.9306 11.3335 21.6666 11.3335ZM14.5813 43.4682C15.1026 43.9882 15.9466 43.9882 16.468 43.4682C16.988 42.9468 16.988 42.1015 16.468 41.5815L10.8106 35.9242C10.2893 35.4042 9.44531 35.4042 8.92531 35.9242C8.40398 36.4455 8.40398 37.2895 8.92531 37.8095L14.5813 43.4682ZM28.3333 28.6668V36.6668C28.3333 37.4042 28.9306 38.0002 29.6666 38.0002C30.4026 38.0002 31 37.4042 31 36.6668V28.6668C31 27.9295 30.4026 27.3335 29.6666 27.3335C28.9306 27.3335 28.3333 27.9295 28.3333 28.6668ZM44.752 43.4682L50.4093 37.8095C50.9293 37.2895 50.9293 36.4455 50.4093 35.9242C49.888 35.4042 49.044 35.4042 48.5226 35.9242L42.8653 41.5815C42.3453 42.1015 42.3453 42.9468 42.8653 43.4682C43.3866 43.9882 44.2306 43.9882 44.752 43.4682ZM16.3333 56.6668C16.3333 49.3028 22.3026 43.3335 29.6666 43.3335C37.0306 43.3335 43 49.3028 43 56.6668H16.3333ZM57.6666 56.6668H45.6666C45.6666 47.8308 38.5026 40.6668 29.6666 40.6668C20.8306 40.6668 13.6666 47.8308 13.6666 56.6668H1.66665C0.930646 56.6668 0.333313 57.2642 0.333313 58.0002C0.333313 58.7375 0.930646 59.3335 1.66665 59.3335H57.6666C58.4026 59.3335 59 58.7375 59 58.0002C59 57.2642 58.4026 56.6668 57.6666 56.6668Z" fill="#3A3A3A"/>
</svg>
