<svg width="59" height="60" viewBox="0 0 59 60" fill="none" xmlns="http://www.w3.org/2000/svg">
<path d="M37.6666 11.3335C36.1946 11.3335 34.9999 12.5282 34.9999 14.0002C34.9999 15.4722 36.1946 16.6668 37.6666 16.6668C39.1386 16.6668 40.3333 15.4722 40.3333 14.0002C40.3333 12.5282 39.1386 11.3335 37.6666 11.3335ZM45.6666 22.0002C44.1946 22.0002 42.9999 23.1948 42.9999 24.6668C42.9999 26.1388 44.1946 27.3335 45.6666 27.3335C47.1386 27.3335 48.3333 26.1388 48.3333 24.6668C48.3333 23.1948 47.1386 22.0002 45.6666 22.0002ZM21.6666 14.0002C20.1946 14.0002 18.9999 15.1948 18.9999 16.6668C18.9999 18.1388 20.1946 19.3335 21.6666 19.3335C23.1386 19.3335 24.3333 18.1388 24.3333 16.6668C24.3333 15.1948 23.1386 14.0002 21.6666 14.0002ZM10.9999 22.0002C9.5266 22.0002 8.33327 23.1948 8.33327 24.6668C8.33327 26.1388 9.5266 27.3335 10.9999 27.3335C12.4719 27.3335 13.6666 26.1388 13.6666 24.6668C13.6666 23.1948 12.4719 22.0002 10.9999 22.0002ZM3.0706 30.0002C3.80393 16.6335 15.4133 6.00018 29.6666 6.00018C43.9199 6.00018 55.5279 16.6335 56.2626 30.0002H3.0706ZM30.9999 3.39752V2.00018C30.9999 1.26285 30.4039 0.666848 29.6666 0.666848C28.9293 0.666848 28.3333 1.26285 28.3333 2.00018V3.39752C12.7559 4.06818 0.333267 16.3002 0.333267 31.3335C0.333267 32.0708 0.929267 32.6668 1.6666 32.6668H28.3333V51.3335C28.3333 54.2788 25.9453 56.6668 22.9999 56.6668C20.0546 56.6668 17.6666 54.2788 17.6666 51.3335C17.6666 50.5962 17.0706 50.0002 16.3333 50.0002C15.5959 50.0002 14.9999 50.5962 14.9999 51.3335C14.9999 55.7508 18.5826 59.3335 22.9999 59.3335C26.9613 59.3335 30.2279 56.4468 30.8653 52.6668H30.9999V32.6668H57.6666C58.4039 32.6668 58.9999 32.0708 58.9999 31.3335C58.9999 16.3002 46.5773 4.06818 30.9999 3.39752ZM29.6666 19.3335C28.1946 19.3335 26.9999 20.5282 26.9999 22.0002C26.9999 23.4722 28.1946 24.6668 29.6666 24.6668C31.1386 24.6668 32.3333 23.4722 32.3333 22.0002C32.3333 20.5282 31.1386 19.3335 29.6666 19.3335Z" fill="#3A3A3A"/>
</svg>
