<svg width="59" height="60" viewBox="0 0 59 60" fill="none" xmlns="http://www.w3.org/2000/svg">
<path d="M33.1601 56.4116C32.0134 56.5623 30.8534 56.6663 29.6668 56.6663C14.9388 56.6663 3.0001 44.7276 3.0001 29.9996C3.0001 15.2729 14.9388 3.33293 29.6668 3.33293C30.8534 3.33293 32.0148 3.43694 33.1601 3.58894C39.2801 10.6169 43.0001 19.9503 43.0001 29.9996C43.0001 40.0503 39.2788 49.3836 33.1601 56.4116ZM29.6668 0.666268C13.4668 0.666268 0.333435 13.7996 0.333435 29.9996C0.333435 46.2009 13.4668 59.3329 29.6668 59.3329C45.8668 59.3329 59.0001 46.2009 59.0001 29.9996C59.0001 13.7996 45.8668 0.666268 29.6668 0.666268" fill="#3A3A3A"/>
</svg>
