<svg width="59" height="35" viewBox="0 0 59 35" fill="none" xmlns="http://www.w3.org/2000/svg">
<path d="M48.3333 32.0002H11C6.58798 32.0002 2.99998 28.4122 2.99998 24.0002C2.99998 20.2842 5.52665 17.0882 9.14398 16.2268C10.204 15.9748 11.004 15.1028 11.1653 14.0255C12.128 7.54951 17.7893 2.66684 24.3333 2.66684C28.8546 2.66684 33.028 4.94551 35.5013 8.76417C35.9213 9.41484 36.604 9.8495 37.3693 9.95617C37.4933 9.9735 37.6173 9.98151 37.74 9.98151C38.3813 9.98151 39.0053 9.75084 39.4946 9.32284C40.4693 8.47217 41.7146 8.00017 43 8.00017C45.9413 8.00017 48.3333 10.3935 48.3293 13.3615L48.3173 13.5575C48.26 14.8202 49.096 15.9482 50.32 16.2615C53.8613 17.1682 56.3333 20.3508 56.3333 24.0002C56.3333 28.4122 52.7453 32.0002 48.3333 32.0002ZM50.9813 13.6802C50.9866 13.5642 51 13.4508 51 13.3335C51 8.91617 47.4173 5.33351 43 5.33351C40.984 5.33351 39.1466 6.08417 37.74 7.31484C34.8933 2.91884 29.9626 0.000173092 24.3333 0.000173092C16.3026 0.000173092 9.67331 5.92151 8.52798 13.6335C3.83065 14.7495 0.333313 18.9615 0.333313 24.0002C0.333313 29.8908 5.10798 34.6668 11 34.6668H48.3333C54.224 34.6668 59 29.8908 59 24.0002C59 19.0268 55.588 14.8602 50.9813 13.6802" fill="#3A3A3A"/>
</svg>
