<svg width="59" height="48" viewBox="0 0 59 48" fill="none" xmlns="http://www.w3.org/2000/svg">
<path d="M48.3333 45.3335H11C6.58798 45.3335 2.99998 41.7455 2.99998 37.3335C2.99998 33.6175 5.52665 30.4215 9.14398 29.5602C10.204 29.3082 11.004 28.4362 11.1653 27.3588C12.128 20.8828 17.7893 16.0002 24.3333 16.0002C28.8546 16.0002 31.6946 16.9468 34.168 20.7642C34.588 21.4148 36.604 23.1828 37.3693 23.2895C37.4933 23.3068 37.74 23.3148 37.74 23.3148C38.3813 23.3148 39.0053 23.0842 39.4946 22.6562C40.4693 21.8055 41.7146 21.3335 43 21.3335C45.9413 21.3335 48.3333 23.7268 48.3293 26.6948L48.3173 26.8908C48.26 28.1535 49.096 29.2828 50.32 29.5948C53.8613 30.5015 56.3333 33.6842 56.3333 37.3335C56.3333 41.7455 52.7453 45.3335 48.3333 45.3335ZM43 2.66684C50.364 2.66684 56.3333 8.63751 56.3333 16.0002C56.3333 20.3602 54.232 24.2175 50.9973 26.6495C50.9893 22.2402 47.412 18.6668 43 18.6668C40.984 18.6668 39.1466 19.4175 37.74 20.6482C35.864 17.7522 33.0733 15.5202 29.784 14.3175C30.6133 7.75084 36.208 2.66684 43 2.66684ZM53.5 28.0548C56.864 25.1215 59 20.8148 59 16.0002C59 7.16417 51.836 0.000172615 43 0.000172615C34.9733 0.000172615 28.348 5.9175 27.196 13.6228C26.264 13.4522 25.3146 13.3335 24.3333 13.3335C16.3026 13.3335 9.67331 19.2548 8.52798 26.9668C3.83065 28.0828 0.333313 32.2948 0.333313 37.3335C0.333313 43.2242 5.10798 48.0002 11 48.0002H48.3333C54.224 48.0002 59 43.2242 59 37.3335C59 33.3268 56.768 29.8735 53.5 28.0548Z" fill="#3A3A3A"/>
</svg>
