<svg width="59" height="54" viewBox="0 0 59 54" fill="none" xmlns="http://www.w3.org/2000/svg">
<path d="M49.6666 37.6668C48.9306 37.6668 48.3333 38.2628 48.3333 39.0002V44.3335C48.3333 45.0708 48.9306 45.6668 49.6666 45.6668C50.4026 45.6668 50.9999 45.0708 50.9999 44.3335V39.0002C50.9999 38.2628 50.4026 37.6668 49.6666 37.6668ZM41.6666 37.6668C40.9306 37.6668 40.3333 38.2628 40.3333 39.0002V47.0002C40.3333 47.7375 40.9306 48.3335 41.6666 48.3335C42.4026 48.3335 42.9999 47.7375 42.9999 47.0002V39.0002C42.9999 38.2628 42.4026 37.6668 41.6666 37.6668ZM48.3333 32.3335H10.9999C6.58795 32.3335 2.99995 28.7455 2.99995 24.3335C2.99995 20.6175 5.52662 17.4202 9.14395 16.5602C10.2039 16.3082 11.0039 15.4362 11.1653 14.3588C12.1279 7.88284 17.7893 3.00017 24.3333 3.00017C28.8546 3.00017 31.6946 3.94684 34.1679 7.76417C34.5879 8.41484 36.6039 10.1828 37.3693 10.2895C37.4933 10.3068 37.7399 10.3148 37.7399 10.3148C38.3813 10.3148 39.0053 10.0842 39.4946 9.65617C40.4693 8.80417 41.7146 8.33351 42.9999 8.33351C45.9413 8.33351 48.3333 10.7268 48.3293 13.6948L48.3173 13.8908C48.2599 15.1535 49.0959 16.2815 50.3199 16.5948C53.8613 17.5028 56.3333 20.6842 56.3333 24.3335C56.3333 28.7455 52.7453 32.3335 48.3333 32.3335ZM50.9813 14.0122C50.9866 13.8975 50.9999 13.7842 50.9999 13.6668C50.9999 9.24951 47.4173 5.66684 42.9999 5.66684C40.9839 5.66684 39.1466 6.41751 37.7399 7.64817C34.8933 3.25217 29.9626 0.333506 24.3333 0.333506C16.3026 0.333506 9.67328 6.25484 8.52795 13.9668C3.83062 15.0842 0.333282 19.2948 0.333282 24.3335C0.333282 30.2242 5.10795 35.0002 10.9999 35.0002H48.3333C54.2239 35.0002 58.9999 30.2242 58.9999 24.3335C58.9999 19.3588 55.5879 15.1935 50.9813 14.0122V14.0122ZM17.6666 40.3335C16.9306 40.3335 16.3333 40.9308 16.3333 41.6668V47.0002C16.3333 47.7375 16.9306 48.3335 17.6666 48.3335C18.4026 48.3335 18.9999 47.7375 18.9999 47.0002V41.6668C18.9999 40.9308 18.4026 40.3335 17.6666 40.3335ZM9.66662 37.6668C8.93062 37.6668 8.33328 38.2628 8.33328 39.0002V47.0002C8.33328 47.7375 8.93062 48.3335 9.66662 48.3335C10.4026 48.3335 10.9999 47.7375 10.9999 47.0002V39.0002C10.9999 38.2628 10.4026 37.6668 9.66662 37.6668ZM33.6666 40.3335C32.9306 40.3335 32.3333 40.9308 32.3333 41.6668V49.6668C32.3333 50.4042 32.9306 51.0002 33.6666 51.0002C34.4026 51.0002 34.9999 50.4042 34.9999 49.6668V41.6668C34.9999 40.9308 34.4026 40.3335 33.6666 40.3335ZM25.6666 43.0002C24.9306 43.0002 24.3333 43.5962 24.3333 44.3335V52.3335C24.3333 53.0708 24.9306 53.6668 25.6666 53.6668C26.4026 53.6668 26.9999 53.0708 26.9999 52.3335V44.3335C26.9999 43.5962 26.4026 43.0002 25.6666 43.0002Z" fill="#3A3A3A"/>
</svg>
