<svg width="59" height="60" viewBox="0 0 59 60" fill="none" xmlns="http://www.w3.org/2000/svg">
<path d="M42.9999 54.0002C41.5279 54.0002 40.3333 55.1948 40.3333 56.6668C40.3333 58.1388 41.5279 59.3335 42.9999 59.3335C44.4719 59.3335 45.6666 58.1388 45.6666 56.6668C45.6666 55.1948 44.4719 54.0002 42.9999 54.0002ZM50.9999 46.0002C49.5279 46.0002 48.3333 47.1948 48.3333 48.6668C48.3333 50.1402 49.5279 51.3335 50.9999 51.3335C52.4719 51.3335 53.6666 50.1402 53.6666 48.6668C53.6666 47.1948 52.4719 46.0002 50.9999 46.0002ZM48.3333 32.6668H10.9999C6.58794 32.6668 2.99995 29.0788 2.99995 24.6668C2.99995 20.9508 5.52528 17.7548 9.14394 16.8948C10.2039 16.6428 11.0053 15.7695 11.1653 14.6922C12.1279 8.21617 17.7893 3.33351 24.3333 3.33351C28.8546 3.33351 31.6946 4.28018 34.1679 8.09751C34.5879 8.74818 36.6039 10.5162 37.3693 10.6228C37.4933 10.6402 37.7399 10.6482 37.7399 10.6482C38.3813 10.6482 39.0053 10.4162 39.4946 9.98951C40.4693 9.13751 41.7146 8.66684 42.9999 8.66684C45.9413 8.66684 48.3333 11.0588 48.3293 14.0282L48.3173 14.2242C48.2599 15.4868 49.0959 16.6162 50.3199 16.9282C53.8613 17.8348 56.3333 21.0175 56.3333 24.6668C56.3333 29.0788 52.7453 32.6668 48.3333 32.6668ZM50.9813 14.3455C50.9866 14.2308 50.9999 14.1175 50.9999 14.0002C50.9999 9.58284 47.4173 6.00017 42.9999 6.00017C40.9839 6.00017 39.1466 6.75084 37.7399 7.98151C34.8933 3.58551 29.9639 0.666841 24.3333 0.666841C16.3026 0.666841 9.67461 6.58817 8.52794 14.3002C3.83061 15.4175 0.333279 19.6282 0.333279 24.6668C0.333279 30.5575 5.10928 35.3335 10.9999 35.3335H48.3333C54.2239 35.3335 58.9999 30.5575 58.9999 24.6668C58.9999 19.6922 55.5879 15.5255 50.9813 14.3455ZM42.9999 43.3335C42.9999 41.8615 41.8053 40.6668 40.3333 40.6668C38.8613 40.6668 37.6666 41.8615 37.6666 43.3335C37.6666 44.8068 38.8613 46.0002 40.3333 46.0002C41.8053 46.0002 42.9999 44.8068 42.9999 43.3335ZM29.6666 48.6668C28.1946 48.6668 26.9999 49.8615 26.9999 51.3335C26.9999 52.8055 28.1946 54.0002 29.6666 54.0002C31.1386 54.0002 32.3333 52.8055 32.3333 51.3335C32.3333 49.8615 31.1386 48.6668 29.6666 48.6668ZM8.33328 43.3335C6.86128 43.3335 5.66661 44.5282 5.66661 46.0002C5.66661 47.4722 6.86128 48.6668 8.33328 48.6668C9.80528 48.6668 10.9999 47.4722 10.9999 46.0002C10.9999 44.5282 9.80528 43.3335 8.33328 43.3335ZM13.6666 51.3335C12.1946 51.3335 10.9999 52.5282 10.9999 54.0002C10.9999 55.4735 12.1946 56.6668 13.6666 56.6668C15.1386 56.6668 16.3333 55.4735 16.3333 54.0002C16.3333 52.5282 15.1386 51.3335 13.6666 51.3335ZM21.6666 38.0002C20.1946 38.0002 18.9999 39.1948 18.9999 40.6668C18.9999 42.1402 20.1946 43.3335 21.6666 43.3335C23.1386 43.3335 24.3333 42.1402 24.3333 40.6668C24.3333 39.1948 23.1386 38.0002 21.6666 38.0002Z" fill="#3A3A3A"/>
</svg>
