<svg width="59" height="60" viewBox="0 0 59 60" fill="none" xmlns="http://www.w3.org/2000/svg">
<path d="M29.6666 56.1147L24.8866 51.3333H25.6666C26.4026 51.3333 27 50.7373 27 50V43.3333H32.3333V50C32.3333 50.7373 32.9306 51.3333 33.6666 51.3333H34.448L29.6666 56.1147ZM37.6666 48.6667H35V42C35 41.264 34.4026 40.6667 33.6666 40.6667H25.6666C24.9306 40.6667 24.3333 41.264 24.3333 42V48.6667H21.6666C20.9306 48.6667 20.3333 49.2627 20.3333 50C20.3333 50.368 20.4826 50.7013 20.724 50.9427L28.724 58.9427C28.9653 59.1853 29.2986 59.3333 29.6666 59.3333C30.0346 59.3333 30.368 59.1853 30.6093 58.9427L38.6093 50.9427C38.8506 50.7013 39 50.368 39 50C39 49.2627 38.4026 48.6667 37.6666 48.6667ZM16.3333 30C16.3333 22.636 22.3026 16.6667 29.6666 16.6667C37.0306 16.6667 43 22.636 43 30H16.3333ZM57.6666 30H45.6666C45.6666 21.164 38.5026 14 29.6666 14C20.8306 14 13.6666 21.164 13.6666 30H1.66665C0.930646 30 0.333313 30.596 0.333313 31.3333C0.333313 32.0707 0.930646 32.6667 1.66665 32.6667H57.6666C58.4026 32.6667 59 32.0707 59 31.3333C59 30.596 58.4026 30 57.6666 30ZM29.6666 11.3333C30.4026 11.3333 31 10.7373 31 10V2.00001C31 1.26268 30.4026 0.66668 29.6666 0.66668C28.9306 0.66668 28.3333 1.26268 28.3333 2.00001V10C28.3333 10.7373 28.9306 11.3333 29.6666 11.3333ZM44.752 16.8013L50.4093 11.1427C50.9293 10.6227 50.9293 9.77868 50.4093 9.25734C49.888 8.73734 49.044 8.73734 48.5226 9.25734L42.8653 14.916C42.3453 15.4347 42.3453 16.28 42.8653 16.8013C43.3866 17.3213 44.2306 17.3213 44.752 16.8013ZM14.5813 16.8013C15.1026 17.3213 15.9466 17.3213 16.468 16.8013C16.988 16.28 16.988 15.4347 16.468 14.916L10.8106 9.25734C10.2893 8.73734 9.44531 8.73734 8.92531 9.25734C8.40398 9.77868 8.40398 10.6227 8.92531 11.1427L14.5813 16.8013Z" fill="#3A3A3A"/>
</svg>
