<svg width="27" height="60" viewBox="0 0 27 60" fill="none" xmlns="http://www.w3.org/2000/svg">
<path d="M13.6666 56.6668C7.77592 56.6668 2.99992 51.8908 2.99992 46.0002C2.99992 42.0548 5.14792 38.6175 8.33325 36.7722V8.66683C8.33325 5.7215 10.7213 3.3335 13.6666 3.3335C16.6119 3.3335 18.9999 5.7215 18.9999 8.66683V36.7722C22.1853 38.6175 24.3333 42.0548 24.3333 46.0002C24.3333 51.8908 19.5573 56.6668 13.6666 56.6668ZM21.6666 35.3522V8.66683C21.6666 4.24817 18.0839 0.666833 13.6666 0.666833C9.24925 0.666833 5.66658 4.24817 5.66658 8.66683V35.3522C2.43325 37.7842 0.333252 41.6428 0.333252 46.0002C0.333252 53.3642 6.30259 59.3335 13.6666 59.3335C21.0293 59.3335 26.9999 53.3642 26.9999 46.0002C26.9999 41.6428 24.8999 37.7842 21.6666 35.3522ZM16.3333 38.4668V22.0002C16.3333 20.5282 15.1386 19.3335 13.6666 19.3335C12.1946 19.3335 10.9999 20.5282 10.9999 22.0002V38.4668C7.89592 39.5655 5.66658 42.5188 5.66658 46.0002C5.66658 50.4175 9.24925 54.0002 13.6666 54.0002C18.0839 54.0002 21.6666 50.4175 21.6666 46.0002C21.6666 42.5188 19.4386 39.5655 16.3333 38.4668Z" fill="#3A3A3A"/>
</svg>
