<svg width="59" height="52" viewBox="0 0 59 52" fill="none" xmlns="http://www.w3.org/2000/svg">
<path d="M32.3333 30.0002H12.3333C11.5959 30.0002 10.9999 30.5962 10.9999 31.3335C10.9999 32.0708 11.5959 32.6668 12.3333 32.6668H32.3333C36.7506 32.6668 40.3332 36.2495 40.3332 40.6668C40.3332 45.0855 36.7506 48.6668 32.3333 48.6668H30.9999C30.2626 48.6668 29.6666 49.2628 29.6666 50.0002C29.6666 50.7375 30.2626 51.3335 30.9999 51.3335H32.3333C38.2239 51.3335 42.9999 46.5575 42.9999 40.6668C42.9999 34.7762 38.2239 30.0002 32.3333 30.0002ZM50.9999 24.6668H6.99992C6.26258 24.6668 5.66658 25.2628 5.66658 26.0002C5.66658 26.7375 6.26258 27.3335 6.99992 27.3335H50.9999C53.9452 27.3335 56.3332 29.7215 56.3332 32.6668C56.3332 35.6122 53.9452 38.0002 50.9999 38.0002H49.6666C48.9292 38.0002 48.3332 38.5962 48.3332 39.3335C48.3332 40.0708 48.9292 40.6668 49.6666 40.6668H50.9999C55.4172 40.6668 58.9999 37.0842 58.9999 32.6668C58.9999 28.2495 55.4172 24.6668 50.9999 24.6668ZM48.3332 16.6668C48.3332 13.7215 45.9452 11.3335 42.9999 11.3335H41.6666C40.9292 11.3335 40.3332 11.9295 40.3332 12.6668C40.3332 13.4042 40.9292 14.0002 41.6666 14.0002H42.9999C44.4719 14.0002 45.6666 15.1948 45.6666 16.6668C45.6666 18.1388 44.4719 19.3335 42.9999 19.3335H1.66659C0.929252 19.3335 0.333252 19.9295 0.333252 20.6668C0.333252 21.4042 0.929252 22.0002 1.66659 22.0002H42.9999C45.9452 22.0002 48.3332 19.6122 48.3332 16.6668ZM6.99992 16.6668H26.9999C31.4173 16.6668 34.9999 13.0842 34.9999 8.66684C34.9999 4.24951 31.4173 0.66684 26.9999 0.66684H25.6666C24.9293 0.66684 24.3333 1.26284 24.3333 2.00017C24.3333 2.73751 24.9293 3.33351 25.6666 3.33351H26.9999C29.9453 3.33351 32.3333 5.72151 32.3333 8.66684C32.3333 11.6122 29.9453 14.0002 26.9999 14.0002H6.99992C6.26258 14.0002 5.66658 14.5962 5.66658 15.3335C5.66658 16.0708 6.26258 16.6668 6.99992 16.6668Z" fill="#3A3A3A"/>
</svg>
